<svg version="1.2" xmlns="http://www.w3.org/2000/svg" viewBox="0 0 934 732" width="934" height="732"><defs><clipPath clipPathUnits="userSpaceOnUse" id="cp1"><path d="m-986-218h1920v5222h-1920z"/></clipPath></defs><style>.a{fill:none;stroke:#fff;stroke-width:8}</style><g clip-path="url(#cp1)"><path class="a" d="m552.5 5.7c82.4 1.8 189.4 1.9 267.2 29.4 119.8 42.6 200.4 200.6 219.9 306.8 16.3 88.9 5.2 192.9-42.2 273.6-48.7 83-168.3 112.4-263.8 111.1-142.3-1.9-280.6 8.6-420.1-25.6-72.4-17.7-142.7-46-199.1-90.3-56.4-44.4-98.1-105.9-106.1-172.8-5.5-45.8-1.9-113.8 12.9-157.8 22.3-66.3 32.1-80.9 93.2-167.5 18.9-25.7 51.6-49 80.9-64.9 26.1-14.1 56.7-19.9 86.8-24.5 89.2-13.7 179.8-19.6 270.4-17.5z"/></g></svg>