<svg version="1.2" xmlns="http://www.w3.org/2000/svg" viewBox="0 0 874 722" width="874" height="722"><defs><clipPath clipPathUnits="userSpaceOnUse" id="cp1"><path d="m-968-223h1920v5222h-1920z"/></clipPath></defs><style></style><g clip-path="url(#cp1)"><path  d="m458.9 0.7c69.1 1.8 158.9 1.9 224.2 29.4 100.5 42.6 168.2 200.6 184.6 306.8 13.6 88.9 4.3 192.9-35.4 273.6-40.9 83-141.3 112.4-221.4 111.1-119.5-1.9-235.5 8.6-352.7-25.6-60.7-17.7-119.7-46-167.1-90.3-47.3-44.4-82.3-105.9-89.1-172.8-4.6-45.8-1.5-113.8 10.9-157.8 18.7-66.3 27-80.9 78.2-167.5 15.9-25.7 43.3-49 67.9-64.9 22-14.1 47.6-19.9 72.9-24.5 74.9-13.8 151-19.6 227-17.5z"/></g></svg>