<svg version="1.2" xmlns="http://www.w3.org/2000/svg" viewBox="0 0 1920 2392" width="1920" height="2392"><defs><clipPath clipPathUnits="userSpaceOnUse" id="cp1"><path d="m0-1361h1920v5222h-1920z"/></clipPath></defs><style>.a{fill:#2e324d;stroke:#fff;stroke-width:8}</style><g clip-path="url(#cp1)"><path class="a" d="m-36.5 1481.6v-881c0 0 116.6 154.4 190.6 177.8 74 23.5 149.7 52.5 220.4 67.2 94 19.5 141.3 34.9 238.5 47.7 80.9 10.7 161.5 14.5 240.8 11.9 106-3.5 172.9-36.3 249.5-59.6 83.5-25.4 171.8-47.3 263.3-60.5 83.1-12 169.5-20.7 254.4-18.3 74.4 2.2 154.9 3.8 225.2 18.3 63.8 13.2 123.7 35.1 169.7 65.1 21 13.7 43.9 30.7 54.8 48.4 12.7 20.7 6.9 45.1 6.9 67.3v313.3 226.3c0 39 23.1 131.8-19.8 161.8-18.4 12.8-7.4 40.2-64.5 46-195.2 0-370.4-2.8-552.9 7.8-189.6 11-372.1 48.1-562 58.3-64 3.5-190.5 11.6-254.9 11.7-106.7 0.1-152-8.4-257.6-18.4-107.8-10.2-201.5-34.1-299.8-61.3-20.5-5.6-41.6-11.6-56.4-21.9-26.8-18.7-49.3-49.3-46.4-74v-164.1"/></g></svg>