<svg version="1.2" xmlns="http://www.w3.org/2000/svg" viewBox="0 0 1920 1235" width="1920" height="2392"><defs><clipPath clipPathUnits="userSpaceOnUse" id="cp1"><path d="m0-1927h1920v5222h-1920z"/></clipPath></defs><style>.a{fill:#2e324d}</style><g clip-path="url(#cp1)"><path class="a" d="m-199.6 913.4v-912.7c0 0 122.7 160 200.6 184.3 77.9 24.3 157.6 54.4 232 69.6 99 20.2 148.7 36.1 251 49.4 85.1 11 170 15 253.4 12.3 111.7-3.6 182-37.6 262.6-61.7 87.9-26.3 180.9-49 277.2-62.7 87.4-12.5 178.3-21.4 267.8-18.9 78.3 2.2 162.9 3.8 237 18.9 67.1 13.6 130.2 36.3 178.5 67.4 22.2 14.2 46.3 31.8 57.8 50.2 13.3 21.5 7.2 46.7 7.2 69.7v324.6 234.5c0 40.3 24.4 136.5-20.8 167.5-19.4 13.3-7.8 41.7-67.9 47.7-205.4 0-389.8-2.9-582 8.1-199.5 11.4-391.6 49.8-591.4 60.4-67.5 3.6-200.6 12-268.3 12.1-112.3 0.1-160-8.7-271.2-19-113.4-10.6-212.1-35.4-315.6-63.5-21.5-5.9-43.7-12.1-59.2-22.7-28.3-19.4-51.9-51.2-48.9-76.8v-169.9"/></g></svg>