<svg version="1.2" xmlns="http://www.w3.org/2000/svg" viewBox="0 0 219 349" width="219" height="349"><defs><clipPath clipPathUnits="userSpaceOnUse" id="cp1"><path d="m-1701-160h1920v5222h-1920z"/></clipPath></defs><style>.a{fill:#f5d8d2}</style><g clip-path="url(#cp1)"><path class="a" d="m272.6 347.3c-34 6.4-80.1-7.4-114.6-11-17.8-1.9-35.8-3.9-52.8-9.7-51.9-17.9-85.4-69.9-98.9-123.1-4.7-18.8-7.5-38.4-4-57.4 5.3-29.4 25-54.5 47.7-74 48.5-41.9 112.2-63.4 176-70.1 57.5-6.1 122.7 2.4 159.5 47 13.7 16.7 22.2 36.9 29.7 57.1 7.7 20.9 14.6 42.4 15.2 64.6 1.1 44.1-23.3 85.8-55.9 115.4-25.8 22.8-67.2 54.7-101.9 61.2z"/></g></svg>