<svg version="1.2" xmlns="http://www.w3.org/2000/svg" viewBox="0 0 138 75" width="138" height="75"><defs><clipPath clipPathUnits="userSpaceOnUse" id="cp1"><path d="m-155-43h1920v5222h-1920z"/></clipPath><clipPath clipPathUnits="userSpaceOnUse" id="cp2"><path d="m0 0h138v75h-138z"/></clipPath></defs><style>.a{fill:#f89a76}.b{fill:#2e324d}</style><g clip-path="url(#cp1)"><g clip-path="url(#cp2)"><path class="a" d="m12.9 35.4l1.2-2.8c1.4 1 3.5 1.7 5.4 1.7 2.3 0 3.2-0.8 3.2-1.8 0-3-9.5-0.9-9.5-7 0-2.7 2.2-5 6.9-5 2 0 4.1 0.5 5.6 1.4l-1.2 2.9c-1.5-0.9-3-1.3-4.5-1.3-2.2 0-3.1 0.8-3.1 1.9 0 3 9.5 0.9 9.5 6.9 0 2.7-2.3 5-6.9 5-2.6 0-5.2-0.8-6.6-1.9z"/><path fill-rule="evenodd" class="a" d="m28 28.9c0-4.8 3.7-8.4 8.9-8.4 5.1 0 8.9 3.5 8.9 8.4 0 4.9-3.8 8.4-8.9 8.4-5.2 0-8.9-3.6-8.9-8.4zm14 0c0-3.1-2.2-5.2-5.1-5.2-2.9 0-5.1 2.1-5.1 5.2 0 3.1 2.2 5.2 5.1 5.2 2.9 0 5.1-2.1 5.1-5.2z"/><path class="a" d="m48.6 20.8h3.8v13.2h8.1v3h-11.9z"/><path class="a" d="m62.3 29.9v-9.1h3.8v8.9c0 3.1 1.3 4.4 3.6 4.4 2.3 0 3.6-1.3 3.6-4.4v-8.9h3.8v9.1c0 4.8-2.8 7.4-7.4 7.4-4.6 0-7.4-2.6-7.4-7.4z"/><path class="a" d="m83.9 23.8h-5.2v-3h14.1v3h-5.2v13.2h-3.7z"/><path class="a" d="m94.9 20.8h3.7v16.2h-3.7z"/><path fill-rule="evenodd" class="a" d="m101.5 28.9c0-4.8 3.7-8.4 8.9-8.4 5.1 0 8.9 3.5 8.9 8.4 0 4.9-3.8 8.4-8.9 8.4-5.2 0-8.9-3.6-8.9-8.4zm14 0c0-3.1-2.2-5.2-5.1-5.2-2.9 0-5.1 2.1-5.1 5.2 0 3.1 2.2 5.2 5.1 5.2 2.9 0 5.1-2.1 5.1-5.2z"/><path class="a" d="m137.1 20.8v16.2h-3.1l-8.2-9.8v9.8h-3.7v-16.2h3.1l8.1 9.8v-9.8z"/><path class="a" d="m18 42.6h-5.7v-1.5h13.2v1.5h-5.8v14.8h-1.7z"/><path fill-rule="evenodd" class="a" d="m44.5 53h-9.1l-1.9 4.4h-1.8l7.4-16.3h1.7l7.5 16.3h-1.8zm-0.7-1.4l-3.9-8.7-3.9 8.7z"/><path class="a" d="m57.1 41.1h1.7v14.8h9.1v1.5h-10.8z"/><path class="a" d="m81.9 49.7l-3.3 3.4v4.3h-1.7v-16.3h1.7v9.9l9.5-9.9h2l-7 7.4 7.5 8.9h-2z"/><path class="b" d="m64.1 63.4c-6.7 6.9-16.2 11.2-26.7 11.2-20.6 0-37.3-16.7-37.3-37.3 0-20.6 16.7-37.3 37.3-37.3 11.9 0 22.4 5.5 29.2 14.1h-2.5c-6.5-7.4-16-12.1-26.7-12.1-19.5 0-35.3 15.8-35.3 35.3 0 19.5 15.8 35.3 35.3 35.3 9.2 0 17.6-3.5 23.9-9.2z"/><path class="b" d="m30.1 48.6c0 1.4-1.1 2.5-2.5 2.5-1.3 0-2.4-1.1-2.4-2.5 0-1.3 1.1-2.4 2.4-2.4 1.4 0 2.5 1.1 2.5 2.4z"/><path class="b" d="m72.8 48.6c0 1.4-1.1 2.5-2.5 2.5-1.4 0-2.5-1.1-2.5-2.5 0-1.3 1.1-2.4 2.5-2.4 1.4 0 2.5 1.1 2.5 2.4z"/><path class="b" d="m52.7 48.6c0 1.4-1.1 2.5-2.5 2.5-1.3 0-2.4-1.1-2.4-2.5 0-1.3 1.1-2.4 2.4-2.4 1.4 0 2.5 1.1 2.5 2.4z"/></g></g></svg>