<svg version="1.2" xmlns="http://www.w3.org/2000/svg" viewBox="0 0 31 30" width="31" height="30"><defs><clipPath clipPathUnits="userSpaceOnUse" id="cp1"><path d="m-346-4920h1920v5222h-1920z"/></clipPath></defs><style>.a{fill:#ceeff1}</style><g clip-path="url(#cp1)"><path class="a" d="m7.9 10.1v19.3c0 0.3-0.3 0.5-0.5 0.5h-6c-0.3 0-0.5-0.2-0.5-0.5v-19.3c0-0.3 0.2-0.5 0.5-0.5h6c0.2 0 0.5 0.2 0.5 0.5z"/><path class="a" d="m8.3 4c0 2.2-1.7 3.9-3.9 3.9-2.2 0-4-1.7-4-3.9 0-2.2 1.8-4 4-4 2.2 0 3.9 1.8 3.9 4z"/><path class="a" d="m30.4 18.8v10.6c0 0.3-0.2 0.5-0.5 0.5h-6c-0.3 0-0.5-0.2-0.5-0.5v-9.4c0-2.6-0.2-4.6-2.6-4.6-2.3 0-3.2 1.2-3.2 4.5v9.5c0 0.3-0.2 0.5-0.4 0.5h-6c-0.3 0-0.5-0.2-0.5-0.5v-19.3c0-0.3 0.2-0.5 0.5-0.5h5.7c0.3 0 0.5 0.2 0.5 0.5v1.3c1.1-1.2 2.9-2.3 5.3-2.3 6.8 0 7.7 4.9 7.7 9.7z"/></g></svg>