<svg version="1.2" xmlns="http://www.w3.org/2000/svg" viewBox="0 0 369 353" width="369" height="353"><defs><clipPath clipPathUnits="userSpaceOnUse" id="cp1"><path d="m0-2019h1920v5222h-1920z"/></clipPath></defs><style>.a{fill:#f5d8d2}</style><g clip-path="url(#cp1)"><path class="a" d="m158.1 352c-34.3-4.4-74-31.8-105.6-45.9-16.3-7.3-32.9-14.8-47.2-25.5-43.8-33.1-59.7-92.9-56-147.7 1.3-19.3 4.7-38.8 13.9-55.8 14.1-26.3 40.6-44.1 68.2-55.7 59.1-24.8 126.3-25.6 189-12.3 56.6 12 116.1 40.3 137.3 94.1 7.9 20.1 9.7 41.9 10.5 63.5 0.9 22.2 0.8 44.8-5.5 66.1-12.5 42.3-48.6 74.4-88.8 92.4-31.5 13.8-80.8 31.3-115.8 26.8z"/></g></svg>