<svg version="1.2" xmlns="http://www.w3.org/2000/svg" viewBox="0 0 320 1095" width="320" height="1095"><defs><clipPath clipPathUnits="userSpaceOnUse" id="cp1"><path d="m0-972h1920v5222h-1920z"/></clipPath></defs><style>.a{fill:#f3ded5}</style><g clip-path="url(#cp1)"><path class="a" d="m316.4 173.2c9 54.3-1.1 109.9-15.3 163.1-17.8 66.4-43.1 132.7-89.1 183.8-61.9 68.9-158.5 107.5-199 190.8-18.8 38.6-23.1 82.7-39 122.7-23.1 57.5-69 102.8-117 142.1-57.2 46.8-120.6 88.3-191.9 107.8-71.4 19.5-151.8 14.7-213.8-25.6-84.3-54.9-118.4-163.3-120.2-263.9-1.7-92.5 21.5-190.1 86.6-255.7 49.6-50 117.8-76.3 176.4-115.4 56-37.5 103.7-87.3 138.7-144.9 22.1-36.5 39.1-76 62.2-111.9 45.8-71.5 116.3-127.7 197.6-152.1 131.1-39.5 298.8 7 323.8 159.2z"/></g></svg>