<svg version="1.2" xmlns="http://www.w3.org/2000/svg" viewBox="0 0 456 333" width="456" height="333"><defs><clipPath clipPathUnits="userSpaceOnUse" id="cp1"><path d="m-1464-2947h1920v5222h-1920z"/></clipPath></defs><style>.a{opacity:.5;fill:#f3ded5}</style><g clip-path="url(#cp1)"><path class="a" d="m136.7 275.6c-66.6-21.1-126.5-63.8-135-117.7-2.9-18.8 0.5-38 9-55.8 22.9-48.2 82.7-83.8 148.9-95.9 66.2-12.1 137.4-2.5 198.5 20.2 24.2 9.1 47 20.1 71.4 28.8 49 17.5 105.7 26.4 144 55.3 20.2 15.2 33.5 34.9 43.6 55.1 10 20.1 17.2 41.7 12.9 62.8-3.9 19.6-17.5 37.4-33.8 52.9-21.8 20.9-49.7 38.8-83.1 47.4-60 15.4-111.8-15-170-21.1-69.7-7.3-141-11.2-206.4-32z"/></g></svg>