<svg version="1.2" xmlns="http://www.w3.org/2000/svg" viewBox="0 0 480 320" width="480" height="320"><defs><clipPath clipPathUnits="userSpaceOnUse" id="cp1"><path d="m-32-944h1920v5222h-1920z"/></clipPath></defs><style>.a{fill:#63687c}</style><g clip-path="url(#cp1)"><path class="a" d="m73.3 307.7c-44-17.4-71.1-49.1-72.4-99.3-0.8-31.1 7.4-66.3 34.9-83.7 19.6-12.4 45.9-15.3 59.4-34.5 4.9-6.9 7.5-15.3 11.6-22.7 7.1-13 18.5-22.9 30.6-30.8 43.2-28.3 96.3-34.6 147.4-35.8 64.4-1.6 138.8 10.9 177 71.3 39.7 62.9 6 128-48.3 165-31.3 21.3-68.1 33.1-105.3 38.2-40.2 5.6-78.2 5.6-113 28.3-34.5 22.6-85 18.7-121.9 4z"/></g></svg>